HIERARCHY
ROOT root
{
	OFFSET	0	13.1	24.9
	CHANNELS 6  Xposition Yposition Zposition Xrotation Yrotation Zrotation
	JOINT spine_1
	{
		OFFSET	0	9.99999	0
		CHANNELS 3  Xrotation Yrotation Zrotation
		JOINT spine_2
		{
			OFFSET	0	112	-10
			CHANNELS 3  Xrotation Yrotation Zrotation
			JOINT spine_3
			{
				OFFSET	0	206.5	19.3
				CHANNELS 3  Xrotation Yrotation Zrotation
				JOINT spine_4
				{
					OFFSET	0	110.4	14.6
					CHANNELS 3  Xrotation Yrotation Zrotation
					JOINT neck_1
					{
						OFFSET	0	71.8	-50.3
						CHANNELS 3  Xrotation Yrotation Zrotation
						JOINT neck_2
						{
							OFFSET	0	86.2	-25.8
							CHANNELS 3  Xrotation Yrotation Zrotation
							JOINT head_ee
							{
								OFFSET	0	179.8	-8.7
								CHANNELS 3  Xrotation Yrotation Zrotation
								End Site
								{
									OFFSET	1	0	0
								}
							}
						}
					}
					JOINT left_clavicle
					{
						OFFSET	-43.2	22.4	-70.8
						CHANNELS 3  Xrotation Yrotation Zrotation
						JOINT left_shoulder
						{
							OFFSET	-93.9	-5.79999	48.7
							CHANNELS 3  Xrotation Yrotation Zrotation
							JOINT left_elbow
							{
								OFFSET	-291.4	-30.8	15.2
								CHANNELS 3  Xrotation Yrotation Zrotation
								JOINT left_lowarm_twist
								{
									OFFSET	-110.7	-3.89999	13.6
									CHANNELS 3  Xrotation Yrotation Zrotation
									JOINT left_hand
									{
										OFFSET	-110.7	-3.89999	13.6
										CHANNELS 3  Xrotation Yrotation Zrotation
										JOINT left_ee
										{
											OFFSET	-80.8	-5.10001	12.1
											CHANNELS 3  Xrotation Yrotation Zrotation
											End Site
											{
												OFFSET	1	0	0
											}
										}
									}
								}
							}
						}
					}
					JOINT right_clavicle
					{
						OFFSET	43.2	22.4	-70.8
						CHANNELS 3  Xrotation Yrotation Zrotation
						JOINT right_shoulder
						{
							OFFSET	93.9	-5.79999	48.7
							CHANNELS 3  Xrotation Yrotation Zrotation
							JOINT right_elbow
							{
								OFFSET	291.4	-30.8	15.2
								CHANNELS 3  Xrotation Yrotation Zrotation
								JOINT right_lowarm_twist
								{
									OFFSET	110.7	-3.89999	13.6
									CHANNELS 3  Xrotation Yrotation Zrotation
									JOINT right_hand
									{
										OFFSET	110.7	-3.89999	13.6
										CHANNELS 3  Xrotation Yrotation Zrotation
										JOINT right_ee
										{
											OFFSET	80.8	-5.10001	12.1
											CHANNELS 3  Xrotation Yrotation Zrotation
											End Site
											{
												OFFSET	1	0	0
											}
										}
									}
								}
							}
						}
					}
				}
			}
		}
	}
	JOINT left_hip
	{
		OFFSET	-82.8	-127.5	0.300001
		CHANNELS 3  Xrotation Yrotation Zrotation
		JOINT left_knee
		{
			OFFSET	-28.2	-396.7	2.2
			CHANNELS 3  Xrotation Yrotation Zrotation
			JOINT left_ankle
			{
				OFFSET	-11.7	-411.3	35.4
				CHANNELS 3  Xrotation Yrotation Zrotation
				JOINT left_toes
				{
					OFFSET	0	-60	-88.6
					CHANNELS 3  Xrotation Yrotation Zrotation
					JOINT left_foot_ee
					{
						OFFSET	-22.5	-16.5	-42.2
						CHANNELS 3  Xrotation Yrotation Zrotation
						End Site
						{
							OFFSET	1	0	0
						}
					}
				}
			}
		}
	}
	JOINT right_hip
	{
		OFFSET	82.8	-127.5	0.300001
		CHANNELS 3  Xrotation Yrotation Zrotation
		JOINT right_knee
		{
			OFFSET	28.2	-396.7	2.2
			CHANNELS 3  Xrotation Yrotation Zrotation
			JOINT right_ankle
			{
				OFFSET	11.7	-411.3	35.4
				CHANNELS 3  Xrotation Yrotation Zrotation
				JOINT right_toes
				{
					OFFSET	0	-60	-88.6
					CHANNELS 3  Xrotation Yrotation Zrotation
					JOINT right_foot_ee
					{
						OFFSET	22.5	-16.5	-42.2
						CHANNELS 3  Xrotation Yrotation Zrotation
						End Site
						{
							OFFSET	1	0	0
						}
					}
				}
			}
		}
	}
}
MOTION
Frames: 9
Frame Time: 0.02
2387.81 732.486 -1265.59 -14.7075 55.9076 11.7887 4.44474 0.424155 3.52152 4.45161 0.199355 3.54134 4.45908 -0.275526 3.53624 4.44174 0.286056 3.5354 -13.0571 14.322 -1.07434 -13.6139 27.9244 3.4682 -0.0 0.0 -0.0 -9.00403 16.9837 -12.3204 -16.0281 -26.2874 66.0632 1.31195 -33.0184 0.388863 32.0959 -0.00316654 -4.0469 -0.997047 18.4009 1.43543 -0.0 0.0 -0.0 12.2034 19.4684 -24.4381 -23.3167 38.8229 -70.2571 0.637759 17.5329 -0.0983487 35.5596 0.13867 4.46832 1.90746 -7.59823 -15.7572 0.0 0.0 0.0 8.98057 60.1561 -5.808 -13.4195 0.315986 2.03046 27.6702 -30.3374 -4.52705 24.998 -0.0 -0.0 -0.0 0.0 -0.0 10.4139 18.0285 -0.356315 -8.09662 -0.247718 -1.21686 21.327 -5.86483 2.89441 27.1147 -0.0 -0.0 0.0 0.0 0.0 
2386.6 731.636 -1268.77 -14.2333 54.9902 11.1658 4.42917 0.4154 3.54614 4.43614 0.189055 3.56536 4.44301 -0.289967 3.55858 4.42545 0.275317 3.55974 -13.3431 14.3636 -1.06326 -13.9316 28.0136 3.57165 -0.0 0.0 -0.0 -9.11046 17.2506 -12.3989 -15.5988 -26.3797 65.9749 1.3413 -33.5999 0.404976 32.4161 -0.0146199 -4.08618 -0.765916 17.1041 2.27998 -0.0 0.0 -0.0 12.288 19.5757 -24.6256 -24.2862 38.7577 -70.0397 0.637999 17.539 -0.0984209 35.1706 0.122184 4.4214 1.90619 -8.66061 -16.1323 0.0 0.0 0.0 8.37932 60.8436 -5.46059 -13.1238 0.314179 1.98513 26.897 -29.6301 -4.38422 25.6727 -0.0 -0.0 -0.0 0.0 -0.0 10.3936 17.2189 -0.435118 -8.04375 -0.246661 -1.20882 22.2056 -5.06015 3.00192 26.8833 -0.0 -0.0 0.0 0.0 0.0 
2384.42 729.732 -1271.51 -14.064 53.8455 10.7904 4.54386 0.397929 3.55457 4.55087 0.171083 3.57266 4.5564 -0.301729 3.56401 4.53877 0.264558 3.56696 -13.1052 14.3311 -1.17761 -13.6697 28.0084 3.38732 -0.0 0.0 -0.0 -8.95537 17.1613 -12.1736 -14.9745 -26.3802 65.5193 1.37164 -34.1932 0.421901 32.7065 -0.0251997 -4.12177 -0.591866 15.8332 2.81181 -0.0 0.0 -0.0 12.1582 19.8533 -24.3078 -24.8762 38.7597 -70.4474 0.634029 17.4365 -0.097228 34.743 0.104431 4.36971 1.9425 -9.48509 -16.6706 0.0 0.0 0.0 8.09574 61.5023 -5.32441 -12.5945 0.31036 1.90401 26.6624 -28.9071 -4.31383 26.147 -0.0 -0.0 -0.0 0.0 -0.0 10.3002 16.8406 -0.00653018 -8.05531 -0.246893 -1.21058 22.9144 -4.37739 3.08823 26.6578 -0.0 -0.0 0.0 0.0 0.0 
2384.27 726.942 -1271.9 -13.8682 52.7851 10.5917 4.59345 0.403401 3.5428 4.60042 0.177292 3.56126 4.60623 -0.290962 3.55379 4.58872 0.27358 3.55517 -13.1297 14.4255 -1.06408 -13.7025 28.1195 3.53388 -0.0 0.0 -0.0 -8.86028 17.0176 -12.0679 -14.3874 -26.4165 65.2055 1.40559 -34.8471 0.441141 32.9116 -0.032777 -4.14686 -0.474632 15.1066 3.2342 -0.0 0.0 -0.0 12.086 20.0824 -24.1255 -25.4944 38.717 -70.1106 0.633444 17.4214 -0.0970528 34.4901 0.0941112 4.33907 1.95981 -10.0165 -16.9741 0.0 0.0 0.0 7.9188 61.9484 -5.2907 -12.248 0.307454 1.85092 26.1718 -28.4763 -4.22604 26.4689 -0.0 -0.0 -0.0 0.0 -0.0 10.4452 16.5791 0.0471439 -7.91698 -0.244097 -1.18954 23.4461 -3.87807 3.15269 26.5403 -0.0 -0.0 0.0 0.0 0.0 
2384.34 726.63 -1271.89 -13.9478 52.2671 10.3947 4.62155 0.388779 3.49398 4.62833 0.165801 3.51161 4.63338 -0.294194 3.5032 4.61635 0.262413 3.50572 -13.0305 14.4024 -1.21706 -13.5945 28.1641 3.3544 -0.0 0.0 -0.0 -8.79264 16.9084 -11.9948 -13.8588 -26.3953 64.948 1.43839 -35.4691 0.460025 33.0468 -0.0378225 -4.16338 -0.373538 14.3245 3.54036 -0.0 0.0 -0.0 11.9954 20.2669 -23.9043 -25.8708 38.6929 -69.9347 0.623 17.1512 -0.0939494 34.2594 0.0848166 4.31108 1.95653 -10.4616 -17.1072 0.0 0.0 0.0 7.78222 62.321 -5.21947 -12.4182 0.308922 1.877 25.6605 -28.0601 -4.13664 26.7021 -0.0 -0.0 -0.0 0.0 -0.0 10.4746 16.4436 0.497724 -7.67546 -0.239094 -1.15281 23.8325 -3.3271 3.2 26.4395 -0.0 -0.0 0.0 0.0 0.0 
2382.22 725.543 -1272.29 -14.0751 51.6214 10.2207 4.61061 0.407823 3.49992 4.61741 0.184429 3.51874 4.62363 -0.277224 3.51266 4.60652 0.280663 3.51239 -13.2315 13.9087 -2.52657 -13.7937 28.0404 2.0017 -0.0 0.0 -0.0 -8.65436 17.0984 -11.6961 -13.1824 -26.1612 64.7163 1.48966 -36.4225 0.490123 32.3929 -0.0137848 -4.08335 -0.213985 11.0466 3.20047 -0.0 0.0 -0.0 11.9978 21.3364 -23.8277 -26.1348 38.754 -70.2685 0.602694 16.6235 -0.0880506 33.6555 0.0610226 4.23765 1.97809 -10.5592 -17.2861 0.0 0.0 0.0 6.44035 63.4215 -3.36623 -12.1632 0.306695 1.83794 24.4737 -28.6905 -4.00631 27.8486 -0.0 -0.0 -0.0 0.0 -0.0 11.1073 14.7906 0.931863 -8.65046 -0.258342 -1.30119 26.0368 -4.16122 3.45293 26.4491 -0.0 -0.0 0.0 0.0 0.0 
2382.54 727.733 -1269.73 -14.2294 50.7254 10.2101 4.6127 0.357177 3.48484 4.61944 0.134843 3.50048 4.62261 -0.324144 3.48806 4.60571 0.230451 3.49549 -13.6796 13.8681 -2.44394 -14.2814 27.9263 2.18817 -0.0 0.0 -0.0 -8.63521 17.3279 -11.5819 -12.3661 -26.279 64.7436 1.49001 -36.4289 0.490332 32.933 -0.0335738 -4.14948 -0.180425 12.3494 3.94624 -0.0 0.0 -0.0 11.7255 20.9221 -23.2369 -26.67 38.6017 -69.5169 0.604175 16.6621 -0.0884748 33.6349 0.060223 4.23514 1.94239 -11.3787 -17.3288 0.0 0.0 0.0 6.28271 63.1191 -3.15607 -12.2417 0.307399 1.84996 24.6805 -28.4451 -4.02269 27.123 -0.0 -0.0 -0.0 0.0 -0.0 11.4703 16.0939 1.14142 -8.28369 -0.251397 -1.24533 24.4039 -2.97702 3.26824 26.4056 -0.0 -0.0 0.0 0.0 0.0 
2382.2 722.001 -1268.97 -14.1312 50.5496 9.99321 4.53668 0.508734 3.44139 4.54323 0.288854 3.46675 4.55591 -0.170805 3.47455 4.53926 0.379743 3.45798 -13.4946 14.0612 -2.52665 -14.0974 28.339 2.12865 -0.0 0.0 -0.0 -8.7543 17.4637 -11.7295 -10.8672 -24.255 64.4394 1.74323 -40.8085 0.648491 32.9377 -0.0337495 -4.15005 -0.028216 10.0763 3.99234 -0.0 0.0 -0.0 11.7086 20.4618 -23.2332 -27.3874 38.4087 -68.8057 0.593718 16.3893 -0.0855004 33.1294 0.040923 4.17347 1.97341 -12.4543 -17.901 0.0 0.0 0.0 5.68077 64.0253 -2.56982 -12.1544 0.306614 1.83659 25.4899 -28.5871 -4.14005 27.0778 -0.0 -0.0 -0.0 0.0 -0.0 11.941 15.2679 1.32624 -8.63368 -0.258032 -1.29863 27.0805 -1.73047 3.58012 26.9012 -0.0 -0.0 0.0 0.0 0.0 
2385.73 720.969 -1269.07 -14.0669 50.4677 9.91414 4.40056 0.396187 3.47846 4.40728 0.174179 3.49659 4.41325 -0.297329 3.48829 4.39636 0.256967 3.49149 -13.3638 14.2105 -2.61265 -13.9682 28.6718 2.06424 -0.0 0.0 -0.0 -8.57423 17.4219 -11.4477 -9.94452 -25.6054 63.5529 1.80881 -41.8574 0.691807 32.7073 -0.0252289 -4.12187 -0.0935407 9.96009 3.52577 -0.0 0.0 -0.0 11.549 20.0455 -22.8992 -27.8451 38.0994 -68.5992 0.587538 16.2277 -0.0837649 33.4802 0.0542576 4.21628 2.066 -11.4612 -18.1868 0.0 0.0 0.0 5.87414 64.2973 -2.67055 -11.1749 0.29642 1.68665 24.0558 -28.9205 -3.95967 26.969 -0.0 -0.0 -0.0 0.0 -0.0 12.4866 15.9367 1.30252 -9.09091 -0.266208 -1.36832 28.0046 -1.3803 3.68481 26.7642 -0.0 -0.0 0.0 0.0 0.0 
